<?xml version="1.0" encoding="UTF-8"?>
<svg id="Layer_2" data-name="Layer 2" xmlns="http://www.w3.org/2000/svg" viewBox="0 0 459.96 234.11">
  <defs>
    <style>
      .cls-1 {
        fill: #141414;
      }

      .cls-2 {
        fill: #e40046;
      }
    </style>
  </defs>
  <g id="Layer_1-2" data-name="Layer 1">
    <g>
      <path class="cls-1" d="M212.96,103.33c14.94-5.12,26.04-18.68,27.63-34.96-1.66,16.27-12.7,29.76-27.63,34.96ZM203.54,22.82c4.53.46,8.85,1.65,12.84,3.45-3.99-1.82-8.31-3.01-12.84-3.45ZM203.54,22.82c-1.05-.11-2.11-.18-3.18-.2,1.07.03,2.13.1,3.18.2ZM436.37,78.51c6.76-8.26,10.81-18.86,10.81-30.35,0-26.6-21.63-48.16-48.15-48.16h-127.58v157.1h-22.84l-24.12-33.51c23.07-9.84,39.3-32.68,39.3-59.28C263.79,28.85,234.93,0,199.47,0h-105.63C42.07,0,0,42.07,0,93.84s42.07,93.84,93.84,93.84h31.78v-34.41h-32.38c-16.31,0-31.63-6.31-43.13-17.89-11.49-11.57-17.73-26.89-17.73-43.2.15-33.36,27.42-60.55,60.86-60.55h44.63v156.05h30.57v-59.06h21.79l42.83,59.06h165.97c33.58,0,60.93-27.35,60.93-61.01,0-19.53-9.24-36.97-23.59-48.16ZM203.23,96.39h-.07l-29.74.2-4.98.03V31.63h31.03c17.81,0,32.31,14.65,32.31,32.68,0,16.53-12.47,30.2-28.55,32.08ZM159.43,31.63v64.99h-12.55V31.63h12.55ZM159.43,178.66h-12.55v-50.04h12.55v50.04ZM271.45,178.66h-33.81l-36.21-50.11-3.23-4.43-3.31-4.51h-48.01v-13.98h52.41c.2,0,.4,0,.6-.01.13-.01.26-.03.41-.06l.04.06c3.47-.09,6.83-.6,10.03-1.48h0c.55-.16,1.09-.32,1.63-.49.32-.1.64-.21.96-.32,14.94-5.12,26.04-18.68,27.63-34.96.03-.35.06-.7.09-1.05.04-.49.06-.97.09-1.46.02-.47.03-.94.03-1.42v-.32c0-.29,0-.59,0-.88-.35-13.93-7.51-26.18-18.24-33.5-.63-.44-1.27-.85-1.93-1.24-.51-.31-1.02-.6-1.54-.88-.3-.16-.59-.32-.89-.47-.6-.31-1.2-.6-1.81-.88-3.99-1.82-8.31-3.01-12.84-3.45-1.05-.11-2.11-.18-3.18-.2-.35-.01-.71-.01-1.07-.01h-106.05c-38.32,0-69.65,31.18-69.88,69.57-.07,18.71,7.22,36.29,20.36,49.59,13.23,13.22,30.81,20.51,49.52,20.51h23.36v16.38h-22.76c-46.81,0-84.9-38.02-84.9-84.82S47.03,9.01,93.84,9.01h105.63c25.74,0,47.41,17.66,53.56,41.49.21.81.4,1.63.56,2.45.78,3.67,1.18,7.47,1.18,11.36,0,23.67-14.88,43.88-35.84,51.69l-.02-.02c-2.97,1.12-6.06,2-9.26,2.59l.04.06,2.93,4.06,2.86,3.9,21.94,30.51,6.61,9.09h27.42v12.47ZM399.03,9.01c21.56,0,39.14,17.51,39.14,39.15,0,9.61-3.53,18.48-9.39,25.32-3.91-2.26-8.04-3.99-12.4-5.26,5.64-4.89,9.17-12.02,9.17-20.06,0-14.65-11.87-26.6-26.52-26.6-7.89,0-15.03,3.46-19.91,9.02-4.14,4.65-6.69,10.89-6.69,17.58,0,8.04,3.6,15.17,9.24,20.06-4.36,1.27-8.56,3-12.47,5.26-5.86-6.84-9.32-15.71-9.32-25.32,0-6.31,1.5-12.33,4.21-17.58,1.58-3.31,3.76-6.32,6.23-9.02,7.14-7.74,17.36-12.55,28.71-12.55ZM376.34,80.01c6.83-3.45,14.57-5.33,22.69-5.33s15.85,1.88,22.69,5.33c-6.39,4.59-14.21,7.29-22.69,7.29s-16.31-2.7-22.69-7.29ZM429.38,126.67c0,16.75-13.6,30.43-30.35,30.43s-30.43-13.68-30.43-30.43,13.67-30.35,30.43-30.35,30.35,13.6,30.35,30.35ZM381.44,48.16c0-9.7,7.89-17.58,17.59-17.58s17.5,7.88,17.5,17.58-7.89,17.5-17.5,17.5-17.59-7.81-17.59-17.5ZM346.21,157.1h-44.18v-46.21h36.82v-30.65h-36.82V30.58h52.22c-2.18,5.41-3.38,11.34-3.38,17.58,0,11.49,4.05,22.01,10.82,30.27-14.43,11.2-23.67,28.71-23.67,48.24,0,11.04,2.93,21.49,8.19,30.43ZM280.47,178.66V9.01h90.68c-4.81,3.31-9.01,7.59-12.17,12.55h-65.97v67.69h36.82v12.63h-36.82v64.31h9.02v-.08h50.56c4.14,4.96,9.1,9.17,14.58,12.55h-86.7ZM399.03,178.66c-12.93,0-24.72-4.73-33.81-12.55-1.66-1.42-3.23-2.93-4.59-4.5-1.35-1.43-2.55-2.93-3.68-4.51-6.23-8.57-9.91-19.09-9.91-30.43,0-17.06,8.26-32.31,21.11-41.7,3.53,3.08,7.43,5.49,11.72,7.36-12.1,6.69-20.29,19.54-20.29,34.34,0,12.25,5.56,23.14,14.35,30.43,2.1,1.73,4.43,3.3,6.91,4.51,5.41,2.93,11.65,4.5,18.19,4.5,21.71,0,39.36-17.73,39.36-39.44,0-14.8-8.19-27.65-20.21-34.34,4.29-1.87,8.2-4.28,11.72-7.36,12.78,9.39,21.12,24.64,21.12,41.7,0,28.7-23.37,51.99-51.99,51.99Z"/>
      <g>
        <path class="cls-2" d="M220.58,225.92c-.42-.36-.89-.66-1.39-.89-.5-.23-1.01-.43-1.52-.61-.51-.17-.98-.35-1.4-.52-.42-.17-.77-.36-1.03-.57-.26-.21-.39-.49-.39-.83s.15-.61.45-.8c.3-.19.72-.28,1.25-.28.58,0,1.1.12,1.57.35.47.23.93.58,1.39,1.06l2.46-2.46c-.59-.66-1.36-1.18-2.3-1.56-.94-.37-1.97-.56-3.08-.56s-2.08.18-2.92.55c-.84.37-1.49.9-1.96,1.61-.47.71-.7,1.54-.7,2.51,0,.78.13,1.42.39,1.93.26.51.6.94,1.03,1.3.42.35.89.65,1.39.88.5.23,1.01.43,1.53.61.52.17.99.35,1.4.52.42.17.76.38,1.03.6.27.23.4.53.4.91s-.18.7-.53.92c-.35.22-.85.33-1.5.33-.76,0-1.45-.15-2.05-.45-.61-.3-1.17-.73-1.69-1.28l-2.46,2.46c.78.84,1.63,1.45,2.57,1.85.94.4,2.05.59,3.33.59,1.93,0,3.44-.43,4.52-1.28,1.08-.85,1.62-2.03,1.62-3.54,0-.78-.13-1.44-.39-1.99-.26-.55-.6-1-1.03-1.36Z"/>
        <polygon class="cls-2" points="243.44 221.84 248.1 221.84 248.1 233.83 251.97 233.83 251.97 221.84 256.68 221.84 256.68 218.51 243.44 218.51 243.44 221.84"/>
        <path class="cls-2" d="M288.3,228.02c0,.55-.12,1.02-.35,1.4-.23.39-.54.69-.93.9-.39.21-.84.31-1.36.31s-.96-.1-1.37-.31c-.41-.21-.73-.51-.97-.91-.24-.4-.36-.87-.36-1.42v-9.49h-3.87v9.18c0,1.24.28,2.34.83,3.3.56.96,1.33,1.71,2.31,2.27.99.55,2.13.83,3.42.83s2.46-.28,3.44-.83c.98-.55,1.74-1.31,2.28-2.26.54-.95.81-2.05.81-3.29v-9.21h-3.89v9.51Z"/>
        <path class="cls-2" d="M327.81,220.63c-.74-.68-1.6-1.2-2.6-1.57s-2.09-.55-3.27-.55h-6.31v15.32h6.35c1.17,0,2.25-.18,3.24-.55.99-.37,1.86-.89,2.59-1.57.73-.68,1.3-1.49,1.71-2.43.4-.94.61-1.98.61-3.12s-.2-2.18-.61-3.11c-.4-.94-.97-1.74-1.71-2.42ZM325.65,228.53c-.35.66-.84,1.15-1.49,1.48-.65.33-1.4.5-2.25.5h-2.42v-8.67h2.42c.85,0,1.6.17,2.24.51.64.34,1.14.82,1.49,1.46.35.63.53,1.41.53,2.33s-.17,1.73-.52,2.39Z"/>
        <rect class="cls-2" x="353.03" y="218.51" width="3.87" height="15.32"/>
        <path class="cls-2" d="M393.85,220.49c-.74-.73-1.6-1.29-2.59-1.67-.99-.39-2.08-.58-3.26-.58s-2.27.19-3.26.58c-.99.39-1.86.95-2.59,1.67-.73.73-1.31,1.57-1.72,2.53-.41.96-.62,2-.62,3.12s.21,2.17.63,3.14c.42.97,1,1.82,1.74,2.54.74.72,1.61,1.28,2.6,1.69.99.4,2.08.61,3.26.61s2.24-.2,3.23-.59c.99-.4,1.85-.96,2.58-1.69.73-.73,1.31-1.57,1.72-2.54.41-.97.62-2.01.62-3.13s-.21-2.17-.62-3.13c-.41-.96-.98-1.81-1.72-2.54ZM391.7,228.52c-.34.68-.83,1.2-1.47,1.58-.64.38-1.39.56-2.24.56-.63,0-1.21-.1-1.74-.31-.53-.21-.98-.51-1.35-.91-.38-.4-.66-.87-.85-1.43-.2-.55-.29-1.18-.29-1.87,0-.89.18-1.67.53-2.34.35-.67.84-1.19,1.48-1.56.63-.37,1.38-.55,2.23-.55.63,0,1.21.1,1.73.31.52.21.96.51,1.34.91.38.4.66.87.85,1.42.2.55.29,1.15.29,1.82,0,.91-.17,1.7-.51,2.38Z"/>
        <path class="cls-2" d="M429.3,227.28c-.26-.55-.6-1-1.03-1.36-.42-.36-.89-.66-1.39-.89-.5-.23-1.01-.43-1.52-.61-.51-.17-.98-.35-1.4-.52-.42-.17-.77-.36-1.03-.57-.26-.21-.39-.49-.39-.83s.15-.61.45-.8c.3-.19.72-.28,1.25-.28.58,0,1.1.12,1.57.35.47.23.93.58,1.39,1.06l2.46-2.46c-.59-.66-1.36-1.18-2.3-1.56-.94-.37-1.97-.56-3.08-.56s-2.08.18-2.92.55c-.83.37-1.49.9-1.96,1.61-.47.71-.7,1.54-.7,2.51,0,.78.13,1.42.39,1.93.26.51.6.94,1.03,1.3.42.35.89.65,1.39.88.5.23,1.01.43,1.53.61.52.17.99.35,1.4.52.42.17.76.38,1.03.6.27.23.4.53.4.91s-.18.7-.53.92c-.35.22-.85.33-1.5.33-.76,0-1.45-.15-2.05-.45-.61-.3-1.17-.73-1.69-1.28l-2.46,2.46c.78.84,1.63,1.45,2.57,1.85.94.4,2.05.59,3.33.59,1.93,0,3.44-.43,4.52-1.28,1.08-.85,1.62-2.03,1.62-3.54,0-.78-.13-1.44-.39-1.99Z"/>
      </g>
    </g>
  </g>
</svg>